<?xml version="1.0" standalone="no"?>
<!DOCTYPE svg PUBLIC "-//W3C//DTD SVG 20010904//EN"
 "http://www.w3.org/TR/2001/REC-SVG-20010904/DTD/svg10.dtd">
<svg version="1.0" xmlns="http://www.w3.org/2000/svg"
 width="1280.000000pt" height="1032.000000pt" viewBox="0 0 1280.000000 1032.000000"
 preserveAspectRatio="xMidYMid meet">

<g transform="translate(0.000000,1032.000000) scale(0.100000,-0.100000)"
fill="#000000" stroke="none">
<path d="M4670 9070 c-11 -11 -22 -30 -25 -42 -3 -13 -4 -283 -3 -600 l3 -578
110 66 c162 96 251 144 267 144 12 0 14 -10 10 -50 -4 -46 -3 -50 22 -61 23
-11 30 -9 56 9 16 12 38 22 49 22 18 0 20 -4 14 -32 -6 -28 -4 -31 13 -23 10
4 29 10 42 12 21 5 22 2 22 -45 0 -68 21 -81 79 -51 46 23 61 19 61 -18 0 -20
4 -24 18 -18 39 16 55 18 51 6 -4 -11 -155 -102 -436 -263 -51 -29 -93 -56
-93 -61 0 -27 45 -11 173 63 78 46 183 106 233 135 l91 52 36 -21 37 -21 39
23 c43 24 61 28 61 12 0 -5 -29 -26 -65 -47 -66 -38 -72 -46 -55 -73 8 -12 13
-13 30 -2 31 19 38 14 10 -8 -22 -17 -23 -19 -7 -25 19 -8 42 7 58 36 8 15 6
17 -8 12 -28 -10 27 32 67 51 28 14 31 14 16 1 -11 -8 -23 -15 -27 -15 -4 0
-5 -9 -2 -20 3 -12 27 -32 54 -46 55 -27 60 -39 24 -56 -14 -6 -25 -15 -25
-20 0 -7 98 -244 107 -257 2 -3 33 14 123 66 19 11 67 39 106 62 39 22 81 41
93 41 19 0 21 -6 21 -50 0 -62 19 -76 67 -49 51 29 73 25 73 -11 0 -27 2 -30
19 -20 25 13 41 13 41 0 0 -5 -21 -21 -47 -35 -27 -14 -124 -70 -218 -125 -93
-55 -192 -112 -219 -126 -47 -25 -49 -27 -31 -40 20 -15 9 -21 190 85 50 29
108 63 130 76 22 12 68 39 103 59 l63 37 35 -22 36 -22 38 22 c21 11 43 21 49
21 42 0 -25 -42 -391 -249 l-117 -66 -1 -378 c0 -374 0 -378 20 -372 18 6 20
2 20 -38 l0 -45 64 -33 c61 -32 64 -32 102 -18 l39 15 -4 346 -4 346 39 25
c38 25 110 66 252 147 40 22 114 65 164 95 51 30 98 55 105 55 9 0 13 -17 13
-54 0 -46 3 -54 21 -59 12 -3 39 3 60 14 21 10 43 19 49 19 7 0 10 -119 10
-364 l0 -364 45 -26 45 -27 0 -123 0 -124 -132 -77 c-73 -43 -149 -88 -168
-100 -193 -121 -209 -130 -330 -198 -19 -10 -41 -24 -48 -29 -7 -6 -15 -9 -18
-6 -5 6 46 38 81 52 19 7 18 9 -9 23 -33 17 -43 14 -146 -47 -67 -40 -113 -66
-212 -122 l-58 -33 0 -376 c0 -372 0 -377 20 -372 18 5 20 0 20 -36 0 -38 3
-43 48 -71 52 -33 114 -39 145 -16 17 13 17 34 11 349 -6 269 -5 339 6 352 7
8 47 35 89 59 42 23 117 67 166 96 82 48 148 86 200 115 11 6 35 21 54 32 19
12 38 20 43 17 4 -3 8 -27 8 -54 0 -65 24 -81 74 -51 69 43 66 61 66 -341 l0
-363 48 -30 c26 -16 46 -33 45 -37 -2 -5 -3 -59 -3 -122 l0 -114 -77 -44
c-218 -125 -283 -164 -343 -202 -96 -63 -118 -76 -190 -114 -36 -19 -72 -40
-80 -47 -21 -16 -128 -75 -137 -75 -12 0 86 61 169 105 61 32 66 43 24 50 -29
6 -48 -2 -142 -56 -60 -34 -118 -68 -129 -74 -11 -6 -46 -26 -77 -44 l-58 -33
0 -379 c0 -377 0 -380 20 -369 19 10 20 8 20 -34 0 -44 1 -46 53 -76 56 -32
91 -37 132 -18 l26 12 -6 340 c-4 188 -3 346 2 351 11 14 83 59 213 133 196
111 255 146 279 164 13 10 34 18 47 18 22 0 24 -4 24 -50 0 -44 3 -50 24 -56
14 -3 37 1 54 10 65 34 62 53 62 -347 l0 -362 37 -20 c58 -32 58 -32 55 -161
l-3 -119 -42 -24 c-72 -40 -276 -161 -404 -238 -76 -46 -132 -73 -150 -73 -16
0 -71 26 -128 59 -55 33 -167 98 -250 146 -82 47 -211 121 -285 165 -74 43
-189 110 -255 148 -66 38 -190 110 -275 159 -85 49 -216 125 -290 168 -74 43
-155 91 -180 106 l-45 28 -6 -27 c-13 -56 -30 -298 -23 -327 11 -48 50 -118
81 -147 15 -15 100 -68 188 -119 431 -247 730 -420 780 -449 17 -10 89 -51
160 -93 72 -41 202 -116 290 -167 88 -51 232 -134 320 -185 270 -155 417 -240
483 -279 104 -62 127 -69 162 -51 20 10 33 27 40 53 8 26 10 871 8 2907 l-3
2870 -32 66 c-18 35 -42 74 -55 86 -18 17 -297 182 -573 338 -22 13 -96 56
-165 95 -69 40 -197 114 -285 165 -88 51 -290 168 -450 260 -159 92 -305 176
-323 186 -18 11 -93 54 -165 96 -292 170 -373 213 -394 213 -13 0 -32 -9 -43
-20z m1110 -1480 c-14 -11 -32 -20 -40 -20 -8 0 1 9 20 19 45 25 51 26 20 1z
m740 -415 c0 -2 -19 -14 -42 -26 -24 -12 -51 -28 -61 -37 -9 -8 -20 -13 -23
-10 -3 4 21 22 53 41 57 35 73 42 73 32z m-140 -79 c0 -5 -69 -46 -78 -46 -3
0 9 11 28 25 33 23 50 30 50 21z m171 -16 l40 -21 30 22 c17 12 32 19 35 16 5
-4 -61 -47 -73 -47 -4 0 -14 -6 -22 -14 -9 -8 -47 -31 -86 -51 -38 -21 -81
-46 -94 -56 -13 -11 -28 -19 -34 -19 -6 0 -25 -11 -43 -25 -18 -14 -39 -25
-47 -25 -8 0 -20 -6 -26 -14 -17 -20 -96 -56 -123 -56 -27 1 -120 50 -125 66
-4 13 55 59 64 50 3 -3 -6 -11 -21 -17 -29 -13 -33 -31 -12 -48 14 -11 24 -6
356 190 63 37 121 68 128 68 7 1 31 -8 53 -19z m-261 -34 c0 -9 -61 -48 -67
-43 -3 3 10 15 28 26 36 22 39 23 39 17z m-81 -50 c-14 -12 -142 -86 -145 -83
-2 2 15 14 37 28 22 13 55 33 72 45 18 11 34 19 36 17 2 -1 2 -5 0 -7z m324
-1402 c18 -9 35 -22 39 -27 5 -8 13 -6 25 5 19 17 63 33 63 23 0 -3 -10 -10
-22 -15 -13 -6 -45 -24 -73 -40 -27 -16 -70 -41 -95 -55 -25 -14 -58 -34 -75
-44 -16 -10 -50 -29 -75 -43 -25 -14 -65 -37 -90 -52 -75 -44 -111 -58 -138
-51 -38 9 -112 55 -112 69 0 7 15 21 34 32 19 10 70 39 113 63 43 24 89 52
102 62 13 11 28 19 34 19 14 0 -30 -33 -78 -59 -22 -12 -62 -35 -90 -51 -27
-16 -60 -34 -72 -40 -28 -12 -30 -36 -4 -45 17 -5 177 82 406 221 39 24 71 43
73 43 2 1 17 -6 35 -15z m11 -1506 l44 -21 37 22 c21 12 40 20 42 17 2 -2 -18
-17 -46 -33 -54 -30 -336 -191 -435 -249 -66 -38 -75 -40 -116 -19 -39 20 -38
37 3 58 17 10 91 52 162 93 72 42 144 84 160 94 17 9 46 27 65 38 19 12 36 22
37 22 1 0 22 -10 47 -22z m-408 -127 c-4 -5 -35 -26 -71 -46 -66 -37 -79 -56
-47 -74 9 -6 13 -11 8 -11 -12 0 -46 30 -46 41 0 5 15 16 33 25 17 9 34 20 37
23 5 6 82 50 88 51 2 0 1 -4 -2 -9z"/>
<path d="M4802 7614 l-23 -16 20 -15 c18 -12 24 -12 41 0 19 13 20 16 5 31
-20 19 -16 19 -43 0z"/>
<path d="M5225 7504 c-71 -41 -135 -80 -142 -87 -10 -10 -13 -41 -11 -117 l3
-103 48 58 c26 31 47 60 47 64 0 3 -14 14 -30 23 -17 9 -30 21 -30 25 1 10 91
65 97 60 2 -3 -12 -14 -32 -25 -34 -21 -45 -45 -25 -57 14 -8 47 11 81 48 28
31 44 76 17 49 -7 -7 -16 -12 -21 -12 -5 0 14 18 41 39 46 37 99 98 91 105 -2
2 -62 -30 -134 -70z"/>
<path d="M5663 7107 c-23 -12 -23 -13 -3 -29 18 -16 20 -16 42 2 20 17 21 21
8 30 -19 12 -20 12 -47 -3z"/>
<path d="M9256 6992 c-3 -5 -25 -19 -48 -31 -52 -27 -106 -57 -173 -99 -27
-17 -81 -47 -120 -67 -38 -21 -77 -43 -85 -50 -8 -7 -33 -22 -55 -34 -22 -12
-58 -33 -80 -46 -22 -13 -53 -31 -70 -40 -16 -8 -52 -28 -80 -45 -48 -28 -81
-47 -190 -109 -27 -16 -53 -27 -57 -24 -4 2 -17 -1 -28 -7 -18 -10 -20 -21
-20 -113 0 -84 4 -109 20 -140 l21 -38 -23 -20 c-13 -11 -51 -36 -85 -56 -35
-21 -63 -41 -63 -46 0 -11 -5 -13 117 48 75 37 102 56 105 73 3 12 1 25 -3 28
-14 8 -10 24 5 24 23 0 45 45 48 99 l3 51 115 -66 c63 -37 174 -100 245 -141
72 -42 144 -83 160 -93 17 -9 70 -40 119 -69 l89 -51 36 22 c34 20 181 106
466 270 66 39 165 96 220 129 55 32 133 77 172 99 81 46 90 55 73 75 -13 15
-24 11 -125 -50 -22 -13 -53 -31 -70 -39 -16 -8 -48 -27 -70 -40 -22 -14 -58
-35 -80 -47 -22 -12 -51 -30 -65 -39 -14 -10 -52 -32 -85 -49 -33 -18 -85 -48
-115 -67 -30 -19 -68 -41 -85 -49 -16 -8 -86 -48 -155 -89 l-125 -73 -45 24
c-59 32 -131 73 -285 163 -131 77 -206 120 -210 120 -2 0 -40 23 -85 50 -45
28 -85 50 -88 50 -4 0 -18 9 -32 20 l-25 19 25 11 c14 6 50 26 80 45 30 19 64
39 75 44 11 6 47 26 80 46 33 19 96 55 140 80 44 26 94 54 110 64 17 10 50 29
75 43 25 14 86 49 135 78 126 74 155 90 198 113 38 19 44 39 15 45 -9 2 -19
-1 -22 -6z"/>
<path d="M5153 6889 c-15 -19 -35 -126 -31 -165 l3 -30 41 56 41 56 -21 48
c-17 39 -24 46 -33 35z"/>
<path d="M3980 6817 c-19 -8 -47 -19 -61 -25 -40 -16 -97 -69 -124 -116 -35
-61 -48 -158 -42 -315 2 -75 8 -143 12 -153 9 -22 89 -55 156 -63 l56 -7 -13
-28 c-21 -42 -28 -140 -15 -215 7 -38 39 -170 72 -294 37 -141 59 -245 59
-279 0 -29 -17 -121 -39 -205 -59 -229 -66 -278 -47 -314 31 -60 160 -134 267
-152 116 -19 304 -13 442 15 44 9 57 30 57 88 0 29 3 81 7 116 5 56 9 64 35
79 63 35 63 35 15 61 l-44 23 -7 126 c-9 176 -32 411 -51 505 -16 84 -12 95
26 96 41 0 69 147 49 254 -18 95 -62 126 -129 91 -16 -8 -47 -17 -69 -21 -34
-5 -41 -3 -46 13 -5 14 -34 27 -115 51 -145 42 -143 43 -139 -15 l3 -48 -114
-8 c-141 -10 -185 -2 -189 34 -3 24 1 27 64 42 37 10 79 24 92 33 23 15 24 20
18 76 -3 37 -14 69 -26 85 -48 61 3 129 70 93 17 -9 20 -6 25 24 4 18 5 86 3
149 -3 128 -14 154 -77 190 -41 25 -136 31 -181 14z"/>
<path d="M5110 6627 c0 -14 5 -29 10 -32 7 -4 8 3 4 22 -9 38 -14 42 -14 10z"/>
<path d="M4640 6479 c0 -101 3 -129 13 -123 6 4 35 21 62 39 28 18 72 45 99
60 l48 27 -63 36 c-35 20 -82 48 -103 64 -21 15 -43 28 -48 28 -4 0 -8 -59 -8
-131z"/>
<path d="M5296 6564 c-4 -9 -4 -19 -1 -22 2 -3 7 3 11 12 4 9 4 19 1 22 -2 3
-7 -3 -11 -12z"/>
<path d="M8654 6445 c-4 -8 -10 -13 -14 -10 -5 3 -16 -3 -26 -12 -10 -10 -19
-17 -21 -15 -2 2 -9 2 -16 -1 -7 -2 -3 -8 11 -16 12 -6 22 -16 22 -22 0 -6 -7
-3 -16 5 -17 18 -54 22 -54 6 0 -6 12 -16 28 -22 15 -7 40 -21 57 -33 34 -23
51 -33 161 -94 43 -24 86 -49 94 -56 32 -26 166 -92 178 -88 6 3 10 9 6 14 -3
5 5 9 16 9 16 0 20 4 16 16 -5 13 -3 14 7 6 8 -7 18 -7 27 -2 13 8 12 12 -5
25 -19 14 -18 15 8 3 18 -7 31 -8 37 -2 7 7 -18 26 -73 57 -46 26 -89 47 -95
47 -7 0 -12 3 -12 8 0 4 -21 18 -47 32 -27 13 -50 27 -53 31 -3 3 -30 19 -60
35 -30 16 -57 32 -60 36 -3 4 -22 14 -42 22 -20 9 -39 20 -43 26 -9 15 -25 12
-31 -5z m47 -42 c13 -16 12 -17 -3 -4 -10 7 -18 15 -18 17 0 8 8 3 21 -13z
m-21 -28 c7 -9 8 -15 2 -15 -5 0 -12 7 -16 15 -3 8 -4 15 -2 15 2 0 9 -7 16
-15z m84 0 c4 -13 2 -14 -14 -5 -23 13 -26 20 -6 20 8 0 16 -7 20 -15z m-109
-33 c-3 -3 -11 0 -18 7 -9 10 -8 11 6 5 10 -3 15 -9 12 -12z m183 -27 c-3 -3
-9 2 -12 12 -6 14 -5 15 5 6 7 -7 10 -15 7 -18z m72 -31 c0 -2 -13 2 -30 11
-16 9 -30 18 -30 21 0 2 14 -2 30 -11 17 -9 30 -18 30 -21z m-69 0 c8 -10 8
-14 0 -14 -6 0 -11 5 -11 10 0 6 -6 10 -14 10 -8 0 -17 4 -20 9 -9 14 32 1 45
-15z m-5 -40 c18 -14 18 -14 -6 -3 -31 14 -36 19 -24 19 6 0 19 -7 30 -16z
m139 -2 c-3 -3 -11 0 -18 7 -9 10 -8 11 6 5 10 -3 15 -9 12 -12z m-26 -21 l21
-19 -26 -6 c-14 -4 -29 -5 -32 -1 -3 3 2 5 11 5 20 0 22 11 5 28 -19 19 -3 14
21 -7z m95 -20 c-2 -3 -12 3 -22 13 -16 17 -16 18 5 5 12 -7 20 -15 17 -18z"/>
<path d="M10025 6261 c-27 -16 -72 -42 -100 -60 -27 -17 -63 -38 -80 -46 -16
-9 -51 -28 -76 -43 -25 -15 -84 -49 -130 -75 -46 -27 -109 -64 -139 -82 -30
-18 -82 -48 -115 -65 -33 -18 -67 -38 -75 -45 -8 -7 -33 -22 -55 -34 -22 -12
-64 -35 -94 -52 -52 -29 -54 -30 -80 -12 -14 10 -39 25 -56 34 -16 9 -46 26
-65 37 -92 54 -162 92 -170 92 -6 0 -10 4 -10 8 0 5 -19 18 -42 30 -24 12 -65
35 -93 51 -111 65 -176 101 -184 101 -5 0 -14 7 -21 15 -18 22 -40 18 -40 -7
0 -17 14 -30 52 -51 39 -22 48 -31 37 -38 -11 -7 -9 -13 11 -29 14 -11 29 -20
33 -20 4 0 25 -11 45 -25 41 -28 77 -34 69 -11 -5 11 0 11 24 -2 16 -9 29 -21
29 -26 0 -6 -5 -5 -12 2 -7 7 -18 12 -25 12 -31 0 -7 -22 74 -67 47 -26 98
-55 112 -63 14 -9 47 -28 72 -43 47 -28 79 -35 79 -17 0 6 24 -3 53 -20 73
-41 72 -41 182 27 11 7 56 33 100 58 44 25 98 56 120 69 91 53 227 133 343
200 190 110 237 139 273 168 30 24 32 29 19 42 -13 13 -21 12 -65 -13z m-1396
-307 c14 -12 -19 -1 -35 12 -18 14 -18 14 6 3 14 -6 27 -13 29 -15z m166 -94
c3 -6 -1 -7 -9 -4 -18 7 -21 14 -7 14 6 0 13 -4 16 -10z m33 -35 c-3 -3 -9 2
-12 12 -6 14 -5 15 5 6 7 -7 10 -15 7 -18z m107 -53 c-3 -3 -11 0 -18 7 -9 10
-8 11 6 5 10 -3 15 -9 12 -12z"/>
<path d="M5286 6205 c-10 -8 -71 -43 -135 -79 -67 -38 -135 -84 -161 -110 -24
-25 -40 -46 -35 -46 4 0 49 24 99 53 50 30 137 81 193 114 78 45 100 62 91 71
-15 15 -29 15 -52 -3z"/>
<path d="M5374 6093 c-44 -25 -92 -53 -109 -63 -16 -10 -67 -39 -112 -65 l-83
-47 0 -375 c0 -367 0 -375 19 -370 17 4 20 -1 23 -37 3 -38 7 -43 58 -74 60
-36 99 -38 147 -7 l25 17 -3 336 -4 336 70 41 c39 23 115 68 170 100 55 32
113 66 128 75 l29 17 -36 22 -35 22 -38 -21 c-21 -11 -51 -29 -68 -39 -167
-100 -283 -161 -309 -161 -31 0 -96 31 -115 54 -18 22 -4 37 72 79 34 19 80
44 102 57 l40 22 -29 -23 c-15 -12 -45 -31 -65 -42 -20 -10 -48 -26 -62 -33
-43 -23 -55 -42 -37 -60 13 -13 23 -10 94 33 43 27 130 77 192 112 62 35 115
68 118 72 3 5 -6 14 -21 21 -22 10 -30 8 -56 -11 -17 -13 -33 -21 -35 -18 -3
3 8 13 25 23 37 22 38 28 7 42 -20 9 -35 4 -102 -35z m56 -37 c0 -6 -66 -46
-76 -46 -5 0 7 11 26 25 33 23 50 30 50 21z"/>
<path d="M10117 6117 c-20 -12 -108 -63 -195 -113 -86 -50 -212 -123 -279
-162 -282 -165 -373 -218 -458 -267 -143 -81 -146 -84 -133 -104 12 -19 -1
-25 213 99 17 10 89 51 160 92 164 95 478 278 683 398 47 28 72 49 70 58 -5
24 -20 24 -61 -1z"/>
<path d="M8077 5983 c-4 -3 -7 -50 -7 -104 0 -77 3 -101 18 -118 l17 -21 43
26 42 25 0 72 0 72 -49 28 c-54 30 -55 30 -64 20z"/>
<path d="M10120 5828 c-37 -23 -178 -105 -435 -253 -88 -51 -214 -124 -280
-162 -66 -39 -165 -96 -220 -128 -153 -88 -147 -83 -135 -105 19 -36 -8 -30
-97 21 -48 29 -146 86 -218 127 -141 81 -145 83 -285 165 -61 35 -99 52 -106
46 -17 -14 -26 -166 -12 -212 7 -23 27 -52 50 -71 29 -25 38 -40 38 -65 0 -22
4 -31 14 -29 8 2 22 -6 30 -17 15 -19 15 -19 16 13 0 17 3 32 6 32 3 0 33 -16
67 -36 34 -20 80 -47 102 -59 44 -25 272 -157 320 -185 17 -10 74 -43 127 -73
l97 -55 118 67 c65 37 159 92 208 121 50 29 110 64 135 78 25 13 70 39 100 57
30 19 120 71 200 118 249 145 228 129 211 156 -8 12 -16 10 -48 -9 -44 -27
-221 -130 -403 -235 -69 -40 -197 -114 -285 -165 -88 -51 -181 -105 -206 -118
l-46 -26 -74 44 c-113 65 -391 225 -511 294 -76 43 -108 66 -108 80 0 22 38
86 51 86 17 0 9 17 -16 30 -20 11 -27 11 -40 0 -13 -11 -15 -6 -15 39 0 28 3
51 8 51 4 0 23 -10 42 -22 59 -36 202 -119 260 -151 30 -16 71 -39 90 -52 19
-12 69 -41 110 -65 41 -23 90 -51 108 -61 84 -49 103 -59 113 -59 9 0 176 95
484 275 50 29 149 86 220 128 72 41 152 88 179 104 26 15 59 37 73 48 21 17
23 23 11 32 -11 10 -28 4 -78 -26 -36 -21 -121 -71 -190 -111 -69 -40 -161
-94 -205 -120 -44 -25 -176 -102 -294 -170 l-213 -123 -34 18 c-19 10 -34 21
-34 24 0 3 46 32 103 65 56 32 158 91 227 131 69 40 199 115 290 167 214 123
289 167 319 186 l24 15 -26 14 c-15 7 -27 18 -27 23 0 5 34 27 76 50 50 28 74
47 72 58 -5 24 -20 24 -58 0z m-1690 -537 c-11 -22 -25 -27 -35 -12 -5 10 35
44 43 37 2 -3 -1 -14 -8 -25z"/>
<path d="M6085 5661 c-72 -43 -240 -141 -273 -159 -20 -10 -19 -26 0 -30 20
-4 37 4 163 78 50 29 125 73 168 98 55 32 74 47 65 53 -23 15 -42 9 -123 -40z"/>
<path d="M5664 5608 c-20 -9 -21 -11 -5 -27 12 -14 21 -15 39 -7 25 10 26 39
2 43 -8 1 -25 -3 -36 -9z"/>
<path d="M8352 5044 c-41 -28 -62 -86 -61 -166 0 -40 3 -67 6 -60 8 20 20 14
37 -20 l16 -33 0 68 c0 75 18 128 56 168 l25 26 -25 17 c-31 19 -27 19 -54 0z"/>
<path d="M5160 4635 c-201 -116 -231 -136 -224 -146 10 -17 40 -9 109 32 125
74 139 82 222 129 63 36 80 49 71 58 -7 7 -17 12 -22 11 -6 0 -76 -38 -156
-84z"/>
<path d="M8206 4623 c-3 -21 -6 -91 -6 -157 l0 -119 21 27 c11 14 24 26 28 26
4 0 21 -28 37 -62 l29 -61 7 139 c3 76 8 147 10 157 2 13 -14 28 -58 53 l-61
34 -7 -37z"/>
<path d="M5355 4586 c-49 -29 -133 -78 -185 -108 l-95 -56 -3 -377 c-2 -373
-2 -376 18 -370 18 6 20 2 20 -33 0 -36 4 -41 53 -72 60 -39 108 -44 150 -15
l29 19 -3 330 c-2 182 0 336 4 343 4 6 26 22 50 36 23 13 103 59 177 101 170
98 169 97 125 120 -33 18 -40 18 -80 -6 -11 -6 -27 -15 -35 -19 -50 -28 -110
-63 -145 -84 -22 -13 -59 -33 -82 -45 -23 -12 -47 -28 -54 -36 -17 -21 -77
-17 -115 7 l-34 21 53 27 c28 15 97 53 152 85 135 78 156 91 183 105 19 10 21
15 11 27 -6 8 -18 14 -26 14 -7 0 -23 9 -35 20 -12 11 -27 20 -32 19 -6 0 -51
-25 -101 -53z m135 10 c0 -6 -82 -58 -86 -54 -2 2 15 16 38 31 42 27 48 30 48
23z m-125 -81 c-16 -13 -38 -24 -47 -25 -9 0 -20 -5 -23 -10 -4 -6 -29 -23
-57 -38 -28 -15 -61 -33 -74 -40 -13 -7 -24 -22 -24 -33 0 -23 -15 -25 -24 -4
-3 9 3 20 17 29 74 45 180 106 186 106 3 0 17 9 31 20 37 29 50 24 15 -5z"/>
<path d="M4796 4617 c-16 -12 -16 -14 -2 -26 24 -20 74 2 56 24 -15 18 -31 19
-54 2z"/>
<path d="M11060 4358 c-47 -28 -157 -93 -245 -143 -88 -51 -267 -154 -397
-229 -131 -76 -242 -134 -248 -131 -6 4 -17 1 -25 -5 -11 -9 -15 -37 -15 -114
0 -110 13 -148 65 -182 17 -11 25 -25 25 -45 0 -15 5 -31 10 -34 6 -3 10 -1
10 6 0 6 9 1 20 -12 l19 -24 1 29 c0 35 0 35 139 -46 58 -34 176 -102 261
-151 261 -151 307 -177 320 -177 12 0 63 29 345 193 136 79 372 216 520 301
118 69 117 68 109 89 -8 23 -11 22 -85 -21 -35 -21 -140 -83 -234 -137 -223
-129 -384 -223 -526 -306 -64 -38 -123 -71 -132 -75 -9 -3 -55 18 -114 52 -54
31 -170 98 -258 149 -88 51 -202 116 -252 146 -51 29 -93 56 -93 60 0 4 16 30
35 58 l34 52 -24 11 c-19 8 -28 8 -40 -2 -13 -11 -15 -5 -15 45 0 45 3 55 13
47 6 -5 28 -19 47 -30 19 -11 96 -55 170 -97 74 -43 206 -119 292 -169 87 -50
169 -98 182 -106 28 -16 32 -14 183 77 40 23 75 43 78 43 3 0 18 8 33 19 15
10 88 53 162 96 123 71 211 122 462 269 48 28 88 53 88 56 0 3 -5 12 -10 20
-8 12 -13 13 -27 3 -10 -6 -72 -43 -138 -81 -66 -38 -176 -102 -245 -142 -69
-40 -163 -95 -210 -122 -47 -27 -98 -57 -115 -67 -104 -62 -244 -141 -249
-141 -4 0 -36 18 -72 40 -36 22 -67 40 -68 40 -2 0 -70 39 -152 86 -82 48
-221 128 -308 178 -88 51 -161 96 -163 101 -2 8 163 107 421 253 48 28 207
120 286 167 30 18 75 44 100 58 114 63 140 79 145 88 14 22 -37 3 -115 -43z
m-829 -757 c-7 -12 -17 -18 -26 -15 -21 9 -19 19 8 31 28 13 31 10 18 -16z"/>
<path d="M2400 4341 c-19 -10 -35 -24 -35 -30 0 -7 23 -25 50 -41 75 -43 145
-84 190 -110 22 -12 60 -34 85 -48 25 -14 59 -34 75 -44 85 -51 90 -53 127
-30 18 11 52 30 76 42 23 12 42 25 42 28 0 4 -30 23 -68 43 -63 33 -102 40
-102 18 0 -19 -72 -41 -108 -34 -78 15 -215 113 -277 198 l-20 27 -35 -19z"/>
<path d="M6125 4188 c-27 -17 -108 -64 -180 -105 -152 -87 -166 -98 -137 -107
22 -7 45 3 162 74 36 22 107 63 158 92 81 46 90 55 75 66 -21 15 -19 16 -78
-20z"/>
<path d="M1427 4136 c-38 -31 -47 -60 -47 -158 0 -114 -16 -95 186 -211 145
-84 377 -218 564 -327 69 -40 144 -84 167 -97 24 -14 45 -28 48 -33 3 -5 -21
-23 -54 -40 -101 -54 -106 -63 -106 -193 0 -99 2 -112 18 -115 9 -2 68 26 130
61 62 36 128 74 147 85 19 11 91 52 160 92 69 40 175 102 236 137 109 62 143
87 131 100 -5 5 -71 -30 -202 -107 -16 -10 -91 -52 -165 -95 -74 -43 -148 -86
-165 -95 -16 -10 -78 -45 -136 -79 -58 -33 -111 -61 -118 -61 -12 0 -16 168
-3 185 10 14 80 57 247 153 77 43 196 112 265 152 69 40 155 90 192 111 37 21
77 49 90 62 13 13 46 36 73 52 59 33 85 54 85 68 0 12 -48 0 -80 -21 -14 -9
-38 -23 -55 -32 -35 -19 -80 -45 -155 -90 -30 -18 -71 -42 -90 -52 -44 -23
-104 -58 -150 -86 -34 -21 -104 -61 -160 -93 -16 -9 -40 -23 -54 -32 -49 -33
-56 -25 -56 66 0 45 4 87 8 93 4 6 26 22 49 35 76 44 286 164 423 244 74 43
144 83 155 89 140 79 177 107 160 124 -5 5 -62 -21 -110 -51 -11 -7 -42 -25
-70 -40 -27 -15 -72 -40 -100 -57 -27 -17 -70 -41 -95 -55 -25 -14 -52 -30
-60 -35 -8 -6 -44 -26 -80 -46 -92 -52 -119 -67 -191 -111 l-64 -38 -55 32
c-30 17 -64 39 -75 48 -18 14 -17 14 7 0 25 -16 29 -15 70 8 146 83 183 105
183 112 0 7 -102 68 -144 86 -16 6 -28 6 -37 -2 -27 -22 -169 -89 -189 -89
-11 0 -67 29 -125 64 -76 45 -113 75 -134 105 -25 37 -30 41 -45 28 -9 -8 -24
-17 -33 -20 -10 -4 -18 -11 -18 -16 0 -6 -21 3 -47 19 -27 17 -61 37 -78 45
-16 9 -51 28 -76 43 -135 79 -158 90 -172 78z m464 -243 c13 -16 12 -17 -3 -4
-10 7 -18 15 -18 17 0 8 8 3 21 -13z m49 -23 c0 -5 -2 -10 -4 -10 -3 0 -8 5
-11 10 -3 6 -1 10 4 10 6 0 11 -4 11 -10z m120 -77 c0 -7 -39 17 -46 28 -3 6
5 3 20 -6 14 -10 26 -19 26 -22z m165 -93 c3 -4 -20 5 -50 22 -30 16 -57 33
-60 38 -3 4 20 -5 50 -22 30 -16 57 -33 60 -38z"/>
<path d="M5666 4115 c-16 -12 -16 -16 -4 -34 13 -19 14 -19 38 -1 20 15 22 20
11 34 -16 19 -21 19 -45 1z"/>
<path d="M10206 3318 c-3 -13 -6 -68 -6 -122 0 -95 1 -98 18 -83 10 10 22 17
25 17 4 0 18 -21 31 -47 l25 -48 2 90 c1 50 1 93 1 96 -1 4 3 20 7 37 9 28 7
31 -39 56 -58 31 -56 31 -64 4z"/>
<path d="M9046 3262 c-2 -4 16 -19 42 -32 145 -75 295 -188 444 -333 97 -94
118 -109 118 -86 0 10 -145 155 -216 214 -109 93 -221 169 -331 224 -47 24
-50 24 -57 13z"/>
<path d="M4225 3216 c-14 -14 -25 -34 -25 -45 0 -18 5 -20 33 -14 40 7 39 6
40 44 2 41 -16 47 -48 15z"/>
<path d="M9015 3188 c143 -73 299 -191 456 -345 65 -64 99 -91 104 -83 14 23
-232 250 -380 350 -85 58 -187 110 -214 110 -21 -1 -15 -7 34 -32z"/>
<path d="M8890 3178 c0 -3 32 -22 71 -42 137 -72 277 -179 435 -332 60 -57
102 -90 107 -85 20 20 -286 296 -405 366 -129 76 -208 111 -208 93z"/>
<path d="M8828 3134 c-4 -3 28 -23 69 -45 42 -22 96 -54 121 -72 24 -18 52
-36 60 -42 41 -25 156 -125 244 -213 67 -65 101 -93 108 -86 21 21 -273 286
-415 374 -94 59 -176 96 -187 84z"/>
<path d="M8756 3091 c-3 -5 11 -16 32 -25 61 -26 220 -127 272 -172 8 -8 40
-35 70 -61 30 -27 92 -84 138 -127 55 -53 86 -76 92 -70 7 7 -16 35 -67 85
-177 169 -316 275 -452 344 -75 38 -77 39 -85 26z"/>
<path d="M4596 3049 c-2 -8 -7 -31 -9 -51 l-6 -37 67 -7 c37 -4 100 -15 140
-24 39 -9 72 -16 72 -15 0 4 -224 133 -242 140 -11 4 -19 2 -22 -6z"/>
<path d="M8685 3049 c-4 -5 13 -18 37 -29 128 -58 299 -186 462 -344 48 -48
95 -86 103 -84 28 6 -209 227 -352 330 -107 76 -240 144 -250 127z"/>
<path d="M3862 3014 c-12 -8 -32 -21 -45 -28 -81 -44 -137 -79 -148 -93 -11
-13 -10 -18 10 -34 13 -11 28 -19 35 -19 6 -1 25 -12 41 -26 36 -31 36 -31
-90 41 -55 32 -119 68 -142 82 l-42 23 -12 -22 c-7 -13 -20 -48 -30 -78 -15
-50 -150 -443 -266 -775 -25 -71 -51 -150 -59 -174 -16 -51 -19 -47 80 -100
l63 -35 53 31 c58 32 59 33 142 283 12 36 23 67 24 69 3 3 73 -37 444 -251 85
-49 215 -124 288 -165 84 -48 132 -82 132 -92 0 -15 -23 -85 -104 -316 -40
-114 -45 -101 61 -160 l61 -35 55 32 c51 29 57 36 76 92 11 34 42 126 70 206
140 408 192 555 198 561 8 8 133 81 387 226 171 98 148 100 217 -22 140 -246
139 -244 224 -295 l80 -47 45 25 c25 14 49 29 54 33 4 4 -14 45 -42 91 -51 86
-112 192 -239 413 -41 72 -80 136 -85 143 -13 15 -42 8 -83 -22 -16 -12 -41
-27 -55 -34 -14 -6 -43 -23 -65 -36 -36 -22 -116 -69 -254 -147 -25 -14 -62
-35 -81 -47 -19 -12 -56 -33 -82 -47 l-47 -25 -61 35 c-34 19 -63 35 -65 35
-2 0 -40 23 -85 50 -45 28 -85 50 -89 50 -4 0 -23 12 -42 26 l-34 26 30 -6
c30 -6 49 1 140 54 22 12 58 33 80 45 22 12 56 31 75 43 19 12 55 33 80 47 25
15 68 39 95 56 28 16 57 32 65 36 31 13 110 67 110 74 0 6 -71 51 -152 96 -4
2 0 -9 9 -25 14 -25 15 -33 4 -61 -26 -62 -124 -105 -289 -125 -91 -11 -126
-20 -186 -50 -82 -40 -110 -44 -144 -20 -53 37 -66 117 -33 212 12 35 14 52 7
52 -41 0 -134 -35 -169 -64 -57 -45 -80 -56 -121 -56 -39 0 -63 19 -72 57 -7
26 1 142 12 181 7 26 -3 28 -34 6z m-23 -247 c55 -35 72 -45 123 -72 26 -13
49 -29 53 -35 4 -6 -17 3 -47 20 -29 16 -71 39 -93 51 -46 25 -92 59 -79 59 4
0 24 -10 43 -23z m-63 -175 c65 -38 191 -111 279 -161 88 -51 219 -127 291
-168 72 -41 140 -83 152 -92 l22 -16 -39 -110 c-22 -60 -49 -129 -60 -152 -12
-23 -21 -47 -21 -54 0 -6 -16 -2 -37 11 -59 35 -93 55 -163 94 -36 20 -72 40
-80 46 -8 5 -33 19 -55 31 -22 12 -47 27 -55 34 -8 7 -46 29 -85 50 -38 21
-88 48 -110 61 -22 13 -58 33 -80 45 -22 12 -47 27 -55 34 -8 7 -40 26 -70 42
-30 16 -72 40 -93 52 l-38 24 40 18 c23 10 41 20 41 22 0 4 66 196 81 235 5
12 10 22 12 22 2 0 57 -31 123 -68z m330 10 c-6 -6 -56 29 -56 39 0 5 13 0 30
-12 16 -13 28 -24 26 -27z m55 -21 c13 -10 56 -35 94 -55 39 -21 77 -45 85
-53 8 -9 -10 -2 -40 15 -30 17 -75 42 -100 56 -55 30 -89 55 -74 56 6 0 22 -8
35 -19z"/>
<path d="M8612 3011 c-8 -5 10 -18 50 -38 132 -65 331 -218 478 -367 49 -51
80 -69 80 -48 0 22 -249 245 -371 333 -86 61 -222 130 -237 120z"/>
<path d="M8530 2966 c0 -2 39 -25 87 -51 92 -50 110 -61 213 -139 71 -54 114
-93 227 -205 47 -47 78 -70 84 -64 15 15 -175 200 -301 295 -138 103 -310 194
-310 164z"/>
<path d="M8475 2914 c11 -9 35 -23 54 -31 18 -8 45 -22 60 -32 14 -10 46 -31
71 -47 73 -47 208 -160 307 -258 64 -62 96 -87 103 -80 19 19 -251 266 -380
348 -25 16 -56 37 -70 46 -74 50 -198 96 -145 54z"/>
<path d="M8390 2882 c0 -4 26 -21 58 -37 135 -67 280 -177 434 -329 90 -89
118 -110 118 -87 0 11 -131 143 -215 216 -84 73 -196 151 -290 202 -79 42
-105 51 -105 35z"/>
<path d="M8322 2842 c-7 -2 13 -18 45 -34 148 -77 282 -178 440 -331 76 -74
113 -104 119 -96 10 17 -181 201 -306 296 -52 39 -131 91 -175 115 -95 52
-106 57 -123 50z"/>
<path d="M2380 2812 c-20 -13 -24 -24 -22 -49 4 -39 5 -39 49 -12 27 17 33 27
31 48 -4 31 -24 36 -58 13z"/>
<path d="M8241 2795 c3 -2 32 -19 65 -36 143 -75 291 -189 452 -344 53 -52 87
-78 95 -73 23 15 -247 259 -393 355 -101 66 -173 103 -201 103 -12 0 -20 -2
-18 -5z"/>
<path d="M8170 2750 c0 -5 5 -10 12 -10 22 0 187 -99 270 -163 88 -67 194
-161 267 -238 28 -30 51 -45 58 -41 8 5 -6 27 -45 67 -148 154 -313 282 -468
363 -63 33 -94 40 -94 22z"/>
<path d="M9930 2623 c81 -41 125 -66 228 -128 51 -31 111 -72 184 -125 45 -33
89 -60 97 -60 22 1 -32 44 -169 136 -63 43 -127 86 -142 96 -52 35 -228 119
-261 124 -22 3 -1 -11 63 -43z"/>
<path d="M9786 2633 c-3 -4 15 -16 42 -27 118 -51 307 -167 500 -307 53 -38
70 -28 22 12 -76 64 -301 207 -420 267 -131 65 -133 66 -144 55z"/>
<path d="M9720 2595 c0 -3 33 -21 73 -39 93 -44 224 -119 322 -187 43 -30 87
-61 99 -69 11 -8 38 -27 58 -42 33 -26 56 -27 40 -2 -15 23 -235 170 -357 239
-141 80 -235 120 -235 100z"/>
<path d="M9776 2496 c137 -69 272 -153 392 -244 49 -37 76 -52 83 -45 10 10
-161 135 -301 220 -104 63 -250 133 -278 133 -17 0 18 -22 104 -64z"/>
<path d="M9600 2523 c0 -5 33 -23 73 -42 137 -62 330 -184 478 -300 20 -16 34
-20 40 -14 18 18 -262 209 -436 296 -116 59 -155 74 -155 60z"/>
<path d="M9610 2447 c158 -79 355 -201 456 -284 41 -33 64 -42 64 -24 0 10
-73 64 -219 161 -109 74 -334 190 -364 189 -13 0 13 -17 63 -42z"/>
<path d="M9477 2454 c-3 -3 44 -32 106 -63 161 -82 199 -106 395 -244 46 -33
86 -56 90 -52 9 9 -31 41 -168 133 -155 104 -219 142 -323 191 -96 45 -91 43
-100 35z"/>
<path d="M9355 2380 c-3 -5 0 -10 7 -10 34 0 272 -133 412 -230 43 -30 88 -61
100 -69 11 -8 31 -24 44 -35 15 -13 26 -16 32 -10 22 22 -323 249 -497 328
-90 40 -89 40 -98 26z"/>
<path d="M9296 2342 c5 -5 29 -17 54 -28 108 -45 295 -159 447 -271 40 -29 77
-53 83 -53 24 0 5 21 -67 71 -116 82 -185 129 -188 129 -2 0 -34 19 -71 42
-85 51 -226 118 -250 118 -10 0 -14 -3 -8 -8z"/>
<path d="M9236 2312 c-3 -5 23 -21 57 -37 119 -54 382 -214 452 -275 37 -32
73 -51 79 -42 8 13 -182 150 -334 240 -39 23 -237 122 -244 122 -3 0 -7 -4
-10 -8z"/>
<path d="M9170 2273 c0 -5 31 -21 68 -37 110 -48 309 -170 445 -272 31 -24 65
-44 75 -44 27 1 -16 35 -189 151 -132 88 -177 114 -278 163 -92 45 -121 54
-121 39z"/>
<path d="M9231 2172 c146 -74 205 -111 378 -234 76 -55 102 -68 100 -50 0 9
-96 78 -235 169 -135 87 -319 183 -353 183 -16 0 23 -24 110 -68z"/>
<path d="M9045 2200 c-3 -5 -1 -10 6 -10 41 0 318 -161 488 -284 51 -36 97
-64 102 -61 28 18 -318 244 -504 330 -85 39 -83 39 -92 25z"/>
<path d="M8981 2166 c2 -3 47 -26 99 -52 52 -26 136 -72 185 -103 90 -55 106
-66 229 -153 64 -46 86 -57 86 -40 -1 14 -165 129 -310 216 -103 63 -252 136
-276 136 -9 0 -15 -2 -13 -4z"/>
</g>
</svg>
